# xmcd CD database file
#
# Track frame offsets:
#	150
#	3036
#	10280
#	20328
#	39519
#	56665
#	96386
#	108424
#	137215
#	175955
#	186678
#
# Disc length: 2839 seconds
#
# Revision: 0
# Processed by: cddbd v1.5.2PL0 Copyright (c) Steve Scherf et al.
# Submitted via: CDex 1.70beta2
#
DISCID=910b150b
DTITLE=Okay Temiz - Mehteran
DYEAR=2002
DGENRE=Jazz
TTITLE0=Karşılama
TTITLE1=Rast peşrevi
TTITLE2=Eski ordu marşı
TTITLE3=Anayurt şarkısı
TTITLE4=Kadıoğlu zeybeği
TTITLE5=Tamara
TTITLE6=Genç Osman
TTITLE7=Estergon Kalesi
TTITLE8=Kutlama
TTITLE9=Ceddin deden
TTITLE10=Gülbank ve hücum marşı
EXTD=YEAR: 2002
EXTT0=
EXTT1=
EXTT2=
EXTT3=
EXTT4=
EXTT5=
EXTT6=
EXTT7=
EXTT8=
EXTT9=
EXTT10=
PLAYORDER=
